<?xml version="1.0" encoding="UTF-8"?>
<svg xmlns="http://www.w3.org/2000/svg" viewBox="0 0 366 366" fill="none">
  <style>
    :root {
      --mark-fill: #122533;
    }
    @media (prefers-color-scheme: dark) {
      :root {
        --mark-fill: #ffffff;
      }
    }
  </style>
  <mask id="logo-mask">
    <rect width="100%" height="100%" fill="black" />
    <path
      d="M0 0 C30.03 0 60.06 0 91 0 C91 7.92 91 15.84 91 24 C98.92 24 106.84 24 115 24 C115 30.6 115 37.2 115 44 C121.93 44 128.86 44 136 44 C136 74.03 136 104.06 136 135 C129.07 135 122.14 135 115 135 C115.01160156 136.57652344 115.02320313 138.15304688 115.03515625 139.77734375 C115.04453243 141.83072799 115.05363282 143.8841135 115.0625 145.9375 C115.07087891 146.97841797 115.07925781 148.01933594 115.08789062 149.09179688 C115.09111328 150.08115234 115.09433594 151.07050781 115.09765625 152.08984375 C115.10289307 153.00628662 115.10812988 153.92272949 115.11352539 154.86694336 C115 157 115 157 114 158 C112.29227642 158.08713831 110.58101351 158.10700007 108.87109375 158.09765625 C107.93966553 158.09515869 107.0082373 158.09266113 106.04858398 158.09008789 C104.85692627 158.08098389 103.66526855 158.07187988 102.4375 158.0625 C98.663125 158.041875 94.88875 158.02125 91 158 C91 165.59 91 173.18 91 181 C60.97 181 30.94 181 0 181 C0 121.27 0 61.54 0 0 Z"
      fill="white"
      transform="translate(48,91)"
    />
    <path
      d="M0 0 C15.18 0 30.36 0 46 0 C46 52.47 46 104.94 46 159 C38.74 159 31.48 159 24 159 C24 166.59 24 174.18 24 182 C0.9 182 -22.2 182 -46 182 C-46 174.41 -46 166.82 -46 159 C-53.26 159 -60.52 159 -68 159 C-68 144.15 -68 129.3 -68 114 C-60.08 114 -52.16 114 -44 114 C-44 121.26 -44 128.52 -44 136 C-29.48 136 -14.96 136 0 136 C0 91.12 0 46.24 0 0 Z"
      fill="white"
      transform="translate(275,90)"
    />
    <path
      d="M0 0 C15.18 0 30.36 0 46 0 C46 30.03 46 60.06 46 91 C30.82 91 15.64 91 0 91 C0 60.97 0 30.94 0 0 Z"
      fill="black"
      transform="translate(93,135)"
    />
  </mask>

  <g mask="url(#logo-mask)">
    <rect width="100%" height="100%" fill="var(--mark-fill)" />
  </g>
</svg>
